<svg width="200" height="80" viewBox="0 0 200 80" fill="none" xmlns="http://www.w3.org/2000/svg">
  <!-- Feuilles (Y) -->
  <path d="M30 10C20 20 15 40 25 45C35 40 40 20 30 10Z" fill="#2E9E45"/>
  <path d="M50 10C60 20 65 40 55 45C45 40 40 20 50 10Z" fill="#2E9E45"/>
  
  <!-- Tige (Y) -->
  <path d="M40 45L40 70" stroke="#2E9E45" stroke-width="4"/>
  
  <!-- Texte "amdata" -->
  <path d="M60 50C60 45 65 40 70 40C75 40 80 45 80 50V70H70V50C70 48 68 48 68 50V70H60V50Z" fill="#2E9E45"/>
  <path d="M85 40H95V70H85V40ZM85 30H95V38H85V30Z" fill="#2E9E45"/>
  <path d="M100 40H110V45C112 41 116 40 118 40C126 40 130 45 130 55C130 65 126 70 118 70C116 70 112 69 110 65V70H100V40ZM110 55C110 60 112 62 115 62C118 62 120 60 120 55C120 50 118 48 115 48C112 48 110 50 110 55Z" fill="#2E9E45"/>
  <path d="M135 40H145V45C147 41 151 40 153 40C161 40 165 45 165 55V70H155V55C155 50 153 48 150 48C147 48 145 50 145 55V70H135V40Z" fill="#2E9E45"/>
  <path d="M170 40H180V45C182 41 186 40 188 40C196 40 200 45 200 55C200 65 196 70 188 70C186 70 182 69 180 65V70H170V40ZM180 55C180 60 182 62 185 62C188 62 190 60 190 55C190 50 188 48 185 48C182 48 180 50 180 55Z" fill="#2E9E45"/>
  
  <!-- Flèche de données -->
  <path d="M185 30L195 20L195 40L185 30Z" fill="#2E9E45"/>
</svg> 