<?xml version="1.0" encoding="UTF-8"?><svg id="Calque_2" xmlns="http://www.w3.org/2000/svg" viewBox="0 0 860.97 290.31"><defs><style>.cls-1{fill:#28a745;}</style></defs><path class="cls-1" d="m214.81,239.87l-1.41-12.31h-.61c-5.45,7.67-15.94,14.53-29.86,14.53-19.77,0-29.86-13.92-29.86-28.05,0-23.61,20.98-36.52,58.71-36.32v-2.02c0-8.07-2.22-22.6-22.19-22.6-9.08,0-18.56,2.82-25.42,7.26l-4.04-11.7c8.07-5.25,19.77-8.68,32.08-8.68,29.86,0,37.12,20.38,37.12,39.95v36.52c0,8.47.4,16.75,1.61,23.41h-16.14Zm-2.62-49.84c-19.37-.4-41.36,3.03-41.36,21.99,0,11.5,7.67,16.95,16.75,16.95,12.71,0,20.78-8.07,23.61-16.34.6-1.82,1.01-3.83,1.01-5.65v-16.95Z"/><path class="cls-1" d="m257.98,168.65c0-10.09-.2-18.36-.81-26.43h15.54l.81,15.74h.6c5.45-9.28,14.53-17.96,30.67-17.96,13.32,0,23.4,8.07,27.64,19.57h.4c3.03-5.45,6.86-9.69,10.9-12.71,5.85-4.44,12.31-6.86,21.59-6.86,12.91,0,32.08,8.47,32.08,42.37v57.5h-17.35v-55.28c0-18.76-6.86-30.06-21.19-30.06-10.09,0-17.96,7.47-20.98,16.14-.81,2.42-1.41,5.65-1.41,8.88v60.33h-17.35v-58.51c0-15.54-6.86-26.83-20.38-26.83-11.1,0-19.17,8.88-21.99,17.76-1.01,2.62-1.41,5.65-1.41,8.68v58.92h-17.35v-71.22Z"/><path class="cls-1" d="m510.59,96.62v118.03c0,8.68.2,18.56.81,25.22h-15.94l-.81-16.95h-.4c-5.45,10.9-17.35,19.17-33.29,19.17-23.61,0-41.77-19.98-41.77-49.63-.2-32.48,19.97-52.46,43.78-52.46,14.93,0,25.02,7.06,29.46,14.93h.4v-58.31h17.75Zm-17.75,85.35c0-2.22-.2-5.25-.81-7.47-2.62-11.3-12.31-20.58-25.62-20.58-18.36,0-29.26,16.14-29.26,37.73,0,19.77,9.69,36.12,28.85,36.12,11.9,0,22.8-7.87,26.03-21.19.61-2.42.81-4.84.81-7.67v-16.95Z"/><path class="cls-1" d="m594.12,239.87l-1.41-12.31h-.61c-5.45,7.67-15.94,14.53-29.86,14.53-19.77,0-29.86-13.92-29.86-28.05,0-23.61,20.98-36.52,58.71-36.32v-2.02c0-8.07-2.22-22.6-22.19-22.6-9.08,0-18.56,2.82-25.42,7.26l-4.04-11.7c8.07-5.25,19.77-8.68,32.08-8.68,29.86,0,37.12,20.38,37.12,39.95v36.52c0,8.47.4,16.75,1.61,23.41h-16.14Zm-2.62-49.84c-19.37-.4-41.36,3.03-41.36,21.99,0,11.5,7.67,16.95,16.75,16.95,12.71,0,20.78-8.07,23.61-16.34.61-1.82,1.01-3.83,1.01-5.65v-16.95Z"/><path class="cls-1" d="m657.87,114.17v28.05h25.42v13.52h-25.42v52.66c0,12.11,3.43,18.97,13.32,18.97,4.64,0,8.07-.61,10.29-1.21l.81,13.32c-3.43,1.41-8.88,2.42-15.74,2.42-8.27,0-14.93-2.62-19.17-7.46-5.04-5.25-6.86-13.92-6.86-25.42v-53.27h-15.13v-13.52h15.13v-23.4l17.35-4.64Z"/><path class="cls-1" d="m757.34,239.87l-1.41-12.31h-.61c-5.45,7.67-15.94,14.53-29.86,14.53-19.77,0-29.86-13.92-29.86-28.05,0-23.61,20.98-36.52,58.71-36.32v-2.02c0-8.07-2.22-22.6-22.19-22.6-9.08,0-18.56,2.82-25.42,7.26l-4.04-11.7c8.07-5.25,19.77-8.68,32.08-8.68,29.86,0,37.12,20.38,37.12,39.95v36.52c0,8.47.4,16.75,1.61,23.41h-16.14Zm-2.62-49.84c-19.37-.4-41.36,3.03-41.36,21.99,0,11.5,7.67,16.95,16.75,16.95,12.71,0,20.78-8.07,23.61-16.34.61-1.82,1.01-3.83,1.01-5.65v-16.95Z"/><path class="cls-1" d="m213.24,0l-19.79,2.28-21.45,7.29-13.11,6.46-16.46,13.11-12.47,13.73-8.77,17.91-3.35,16.44-1.02,13.54,1.02,20.19-7.67,16.04-4.8-12.9-.62-16.25-2.28-12.07-5.01-13.33-8.31-12.92-12.5-11.64-14.37-8.77-12.71-6.65-11.02-3.54-11.45-2.09-17.7-1.05H0l1.05,14.8,5.2,17.27,5.63,12.5,7.27,12.92,6.89,8.96,7.48,8.74,13.11,10.19,13.54,7.29,11.05,3.54,13.54,2.09,9.36,1.24,3.75,8.12,5.2,16.87,3.75,23.12,1.24,24.56v41.86h14.47v-16.99l-1.5-25.25v-15.23l-2.95-34.54,3.73-15.44,6.87-19.15,13.33-1.66,14.37-3.54s12.28-4.8,12.9-5.01c.62-.19,7.08-4.56,7.08-4.56l15.2-10.64,8.53-9.15,10.22-14.78,6.87-16.68,5.42-18.74,2.09-13.33,1.02-15.18h-12.47ZM84.74,96.52l-10.6-10.26-7.17-6.98-8.2-8.05-13.49-10.07,11.45,5.82,8.03,5.63,7.01,5.63,4.94,4.87,7.01,8.29,4.61,6.32,3.94,7.36-7.53-8.55Zm93.32-54.52l-7.86,6.32-12.31,11.45-6.65,8.22-7.53,9.22-4.78,6.32-6.68,6.51,4.44-8.88,5.99-10.26,5.63-7.01,9.57-9.05,8.55-7.17,9.41-7.2,10.76-6.13-8.55,7.67Z"/><polygon class="cls-1" points="805.12 201.29 805.12 128.86 782.54 128.86 815.25 89.92 815.25 201.29 805.12 201.29"/><polygon class="cls-1" points="837.69 89.94 838.38 162.37 860.97 162.15 828.63 201.4 827.57 90.04 837.69 89.94"/></svg>